PathFileType	4	(X/Y/Z)	TVC_39_BWA_06_walk_RCNL2025.trc
DataRate	CameraRate	NumFrames	NumMarkers	Units	OrigDataRate	OrigDataStartFrame	OrigNumFrames
100	100	7	27	mm	100	979	1118
Frame#	Time	R_Shoulder			L_Shoulder			C7			J_Notch			R_Elbow			L_Elbow			R_Wrist			L_Wrist			R_Asis			L_Asis			R_Psis			L_Psis			Sacral			Thoracic			Sternum			R_Thigh_Lateral			R_Knee_Lateral			R_Shank_Lateral			R_Ankle_Lateral			R_Heel			R_Toe			L_Thigh_Lateral			L_Knee_Lateral			L_Shank_Lateral			L_Ankle_Lateral			L_Heel			L_Toe		
		X1	Y1	Z1	X2	Y2	Z2	X3	Y3	Z3	X4	Y4	Z4	X5	Y5	Z5	X6	Y6	Z6	X7	Y7	Z7	X8	Y8	Z8	X9	Y9	Z9	X10	Y10	Z10	X11	Y11	Z11	X12	Y12	Z12	X13	Y13	Z13	X14	Y14	Z14	X15	Y15	Z15	X16	Y16	Z16	X17	Y17	Z17	X18	Y18	Z18	X19	Y19	Z19	X20	Y20	Z20	X21	Y21	Z21	X22	Y22	Z22	X23	Y23	Z23	X24	Y24	Z24	X25	Y25	Z25	X26	Y26	Z26	X27	Y27	Z27
979	9.78000000	715.115845	1456.513550	412.806976	775.279602	1482.032715	49.911633	704.975647	1528.218018	224.313400	856.252686	1406.721069	239.313553	729.271667	1137.735718	530.599609	703.667053	1172.781494	-72.241196	837.217651	907.386414	498.534729	779.048492	921.602997	-53.472832	791.927856	930.103210	364.584808	825.305908	920.459351	72.527817	603.298096	953.614136	251.841415	615.021973	941.822327	144.542389	609.160034	947.718231	198.191902	615.660950	1201.008057	194.394714	899.964844	1245.305908	247.808243	759.580444	727.566711	436.063599	760.552551	460.698059	365.185822	668.309082	291.906525	422.941010	602.888550	79.443481	326.493042	562.165405	64.819893	274.496216	740.998474	47.940842	339.553711	821.053833	675.129211	-13.316652	914.707275	473.981049	64.800461	873.926270	340.278015	2.124816	834.118652	77.385941	80.256142	787.897400	60.269432	138.216782	971.856262	44.235012	75.458817
980	9.79000000	717.804932	1457.535400	410.291199	778.279236	1482.170776	47.243088	707.678955	1528.858765	221.594269	858.982788	1407.362549	236.923538	731.966675	1138.730591	528.194031	707.012390	1172.846436	-74.554459	840.172150	908.478210	496.165833	781.224823	921.300293	-56.289610	794.479126	930.323364	362.838654	828.560303	921.263794	70.725899	606.105286	954.132935	249.705246	618.105469	942.684998	142.447678	612.105377	948.408966	196.076462	618.521667	1201.561035	192.338013	902.706238	1245.999634	245.870712	761.212219	727.810242	434.035522	760.778503	461.058197	363.799591	668.185730	292.658081	422.100983	602.921387	79.757217	326.322510	562.348755	64.673592	273.912109	741.030518	47.932339	339.536713	822.261108	675.218811	-15.006306	915.368286	473.881439	63.583286	874.543762	340.017426	1.212364	834.299072	77.406387	79.894035	787.913452	60.378769	137.977386	971.896606	44.249760	75.246994
981	9.80000000	720.533264	1458.594238	407.782288	781.250916	1482.400513	44.592316	710.388489	1529.551270	218.893463	861.716980	1408.058228	234.519287	734.696411	1139.773315	525.796875	710.331543	1173.021118	-76.889343	843.130432	909.610321	493.725677	783.403351	921.117615	-59.117791	797.032593	930.618225	361.034790	831.812256	922.121155	68.877960	608.914307	954.720764	247.503159	621.197327	943.606445	140.292862	615.055817	949.163605	193.898010	621.383057	1202.169312	190.260223	905.455200	1246.748779	243.895523	762.729980	728.162537	431.973663	760.709412	461.540649	362.417847	667.827332	293.491913	421.283539	602.925415	80.080933	326.164032	562.431396	64.578369	273.329498	741.054932	47.926418	339.531647	823.369812	675.306763	-16.689980	915.903076	473.788177	62.347187	875.012695	339.750275	0.282173	834.475769	77.393417	79.506363	787.899963	60.428478	137.697937	971.947754	44.260384	75.036621
982	9.81000000	723.291809	1459.684082	405.280853	784.189331	1482.717896	41.961163	713.100464	1530.290894	216.212357	864.452148	1408.805420	232.103439	737.461060	1140.859619	523.413330	713.616089	1173.299927	-79.245384	846.095123	910.780792	491.216949	785.579468	921.050690	-61.955847	799.586975	930.988586	359.179382	835.062683	923.020874	66.994057	611.724304	955.372986	245.239929	624.297302	944.577698	138.082352	618.010803	949.975342	191.661140	624.244202	1202.827881	188.157471	908.209656	1247.549805	241.885040	764.145020	728.620605	429.887177	760.348999	462.145111	361.043457	667.235352	294.405640	420.485291	602.902527	80.416527	326.012543	562.418152	64.556473	272.772949	741.072998	47.923679	339.536591	824.477417	675.424194	-18.368795	916.322876	473.695312	61.106663	875.355835	339.471283	-0.657274	834.635742	77.345909	79.109665	787.854675	60.429752	137.386902	972.005554	44.258812	74.839050
983	9.82000000	726.071350	1460.797852	402.786835	787.090393	1483.117065	39.350594	715.811707	1531.072266	213.551620	867.185303	1409.599609	229.678436	740.260315	1141.984009	521.047058	716.858643	1173.675781	-81.622345	849.069153	911.986298	488.643433	787.749542	921.093750	-64.803150	802.140564	931.433960	357.278961	838.311340	923.951660	65.084244	614.533997	956.084045	242.921829	627.404053	945.589355	135.822083	620.969025	950.836700	189.371956	627.104065	1203.531006	186.026184	910.967590	1248.398315	239.841614	765.466248	729.178894	427.786285	759.709656	462.868744	359.678070	666.416931	295.396240	419.700012	602.855774	80.766548	325.860474	562.318665	64.627388	272.260925	741.086548	47.924500	339.549011	825.674744	675.598999	-20.045769	916.642822	473.599335	59.874233	875.599304	339.177185	-1.599003	834.766052	77.263229	78.721291	787.779114	60.395149	137.052841	972.066711	44.241173	74.662949
984	9.83000000	728.862671	1461.928223	400.299744	789.951355	1483.590942	36.760765	718.519348	1531.889404	210.911301	869.913879	1410.435791	227.246384	743.092896	1143.139648	518.699951	720.052795	1174.140381	-84.020195	852.055450	913.222504	486.010025	789.911041	921.239746	-67.659889	804.691040	931.952393	355.340454	841.557251	924.901672	63.158409	617.341431	956.847290	240.556381	630.515381	946.631409	133.519272	623.928406	951.739349	187.037827	629.961548	1204.272217	183.863464	913.726868	1249.288330	237.767548	766.699219	729.830139	425.682343	758.812256	463.706024	358.322388	665.385254	296.460205	418.919189	602.789673	81.134224	325.697784	562.146912	64.806259	271.802979	741.097351	47.929062	339.565948	827.035217	675.851562	-21.724041	916.880859	473.498291	58.660049	875.768311	338.866638	-2.537741	834.854858	77.144989	78.357468	787.677612	60.336960	136.704071	972.128845	44.206360	74.513779
985	9.84000000	731.656799	1463.067139	397.818542	792.770874	1484.131470	34.191109	721.220947	1532.735474	208.290894	872.635620	1411.307617	224.809204	745.956482	1144.318848	516.372620	723.193298	1174.684448	-86.439072	855.056702	914.483917	483.322708	792.062439	921.480682	-70.526976	807.235657	932.540710	353.371155	844.798279	925.859009	61.226025	620.144165	957.655457	238.152069	633.627991	947.693970	131.182053	626.886078	952.674713	184.667061	632.815369	1205.045044	181.667236	916.485413	1250.213257	235.665176	767.845581	730.565613	423.587402	757.685913	464.649231	356.976471	664.159424	297.593475	418.132172	602.710144	81.523323	325.511932	561.921570	65.102196	271.397675	741.107605	47.937366	339.584076	828.608154	676.192688	-23.405323	917.055664	473.391388	57.471706	875.884705	338.539642	-3.469865	834.893433	76.991821	78.031029	787.556641	60.266109	136.348419	972.190247	44.154938	74.393776
